Title                            : Defendor
Year                             : 2009
Genre                            : Comedy | Crime | Drama
iMDB URL                         : http://www.imdb.com/title/tt1303828/
Awards                           : 1 win

Complete name                    : Defendor.2009.BRRIP.H264-ZEKTORM.mp4
Format                           : MPEG-4
Format profile                   : Base Media
Codec ID                         : isom
File size                        : 1.46 GiB
Duration                         : 1h 41mn
Overall bit rate                 : 2067 Kbps
Subtitles                        : English, Spanish, Portuguese, Thai, Chinese, Korean (Format: VobSub) / English (Format: srt)

Video
ID                               : 1
Format                           : AVC
Format/Info                      : Advanced Video Codec
Format profile                   : High@L3.0
Format settings, CABAC           : Yes
Codec ID                         : avc1
Codec ID/Info                    : Advanced Video Coding
Duration                         : 1h 41mn
Bit rate mode                    : Variable
Bit rate                         : 1768 Kbps
Width                            : 1280 pixels
Height                           : 528 pixels
Display aspect ratio             : 2.424
Frame rate mode                  : Constant
Frame rate                       : 23.976 fps
Resolution                       : 24 bits
Colorimetry                      : 4:2:0
Scan type                        : Progressive
Bits/(Pixel*Frame)               : 0.109
Stream size                      : 1.25 GiB (85%)
Title                            : Video
Writing library                  : x264

Audio #1
ID                               : 2
Format                           : AAC
Format/Info                      : Advanced Audio Codec
Format version                   : Version 4
Format profile                   : LC
Format settings, SBR             : Yes
Format settings, PS              : No
Codec ID                         : 40
Duration                         : 1h 41mn
Bit rate mode                    : Variable
Bit rate                         : 215 Kbps
Maximum bit rate                 : 279 Kbps
Channel(s)                       : 6 channels
Channel positions                : Front: L C R, Rear: L R, LFE
Sampling rate                    : 48.0 KHz
Resolution                       : 16 bits
Stream size                      : 156 MiB (10%)
Title                            : English
Language                         : English

Audio #2
ID                               : 3
Format                           : AAC
Format/Info                      : Advanced Audio Codec
Format version                   : Version 4
Format profile                   : LC
Format settings, SBR             : Yes
Format settings, PS              : No
Codec ID                         : 40
Duration                         : 1h 41mn
Bit rate mode                    : Variable
Bit rate                         : 82.2 Kbps
Maximum bit rate                 : 112 Kbps
Channel(s)                       : 2 channels
Channel positions                : L R
Sampling rate                    : 48.0 KHz
Resolution                       : 16 bits
Stream size                      : 59.6 MiB (4%)
Title                            : English
Language                         : English
